ISO-10303-21;
HEADER;
/* Generated by software containing ST-Developer
 * from STEP Tools, Inc. (www.steptools.com) 
 */
/* OPTION: using custom schema-name function */

FILE_DESCRIPTION(
/* description */ (''),
/* implementation_level */ '2;1');

FILE_NAME(
/* name */ '2dmesh',
/* time_stamp */ '2024-04-12T11:02:46-04:00',
/* author */ (''),
/* organization */ (''),
/* preprocessor_version */ 'ST-DEVELOPER v19.2',
/* originating_system */ 'Rhino 8.5',
/* authorisation */ '');

FILE_SCHEMA (('CONFIG_CONTROL_DESIGN'));
ENDSEC;

DATA;
#10=SHAPE_REPRESENTATION_RELATIONSHIP('','',#178,#17);
#11=(
BOUNDED_CURVE()
B_SPLINE_CURVE(2,(#238,#239,#240,#241,#242),.UNSPECIFIED.,.F.,.F.)
B_SPLINE_CURVE_WITH_KNOTS((3,2,3),(11.0903128277595,11.7034577194252,18.0464914420384),
 .UNSPECIFIED.)
CURVE()
GEOMETRIC_REPRESENTATION_ITEM()
RATIONAL_B_SPLINE_CURVE((1.,0.979219266218806,0.959011140212601,0.971000416206442,
1.))
REPRESENTATION_ITEM('')
);
#12=(
BOUNDED_CURVE()
B_SPLINE_CURVE(2,(#243,#244,#245,#246,#247),.UNSPECIFIED.,.F.,.F.)
B_SPLINE_CURVE_WITH_KNOTS((3,2,3),(11.0903128277595,11.7034577194252,18.0464914420384),
 .UNSPECIFIED.)
CURVE()
GEOMETRIC_REPRESENTATION_ITEM()
RATIONAL_B_SPLINE_CURVE((1.,0.979219266218806,0.959011140212601,0.971000416206442,
1.))
REPRESENTATION_ITEM('')
);
#13=(
BOUNDED_CURVE()
B_SPLINE_CURVE(2,(#248,#249,#250),.UNSPECIFIED.,.F.,.F.)
B_SPLINE_CURVE_WITH_KNOTS((3,3),(18.0464914420384,19.1558748639023),
 .UNSPECIFIED.)
CURVE()
GEOMETRIC_REPRESENTATION_ITEM()
RATIONAL_B_SPLINE_CURVE((1.,0.999777901130491,1.))
REPRESENTATION_ITEM('')
);
#14=(
BOUNDED_CURVE()
B_SPLINE_CURVE(2,(#251,#252,#253),.UNSPECIFIED.,.F.,.F.)
B_SPLINE_CURVE_WITH_KNOTS((3,3),(18.0464914420384,19.1558748639023),
 .UNSPECIFIED.)
CURVE()
GEOMETRIC_REPRESENTATION_ITEM()
RATIONAL_B_SPLINE_CURVE((1.,0.999777901130491,1.))
REPRESENTATION_ITEM('')
);
#15=SHELL_BASED_SURFACE_MODEL('Shell',(#18));
#16=SHELL_BASED_SURFACE_MODEL('Shell',(#19));
#17=MANIFOLD_SURFACE_SHAPE_REPRESENTATION('shell_rep_0',(#15,#16,#184),
#177);
#18=OPEN_SHELL('',(#20));
#19=OPEN_SHELL('',(#21));
#20=ADVANCED_FACE('',(#22),#90,.T.);
#21=ADVANCED_FACE('',(#23),#91,.T.);
#22=FACE_OUTER_BOUND('',#24,.T.);
#23=FACE_OUTER_BOUND('',#25,.T.);
#24=EDGE_LOOP('',(#26,#27,#28));
#25=EDGE_LOOP('',(#29,#30,#31,#32,#33));
#26=ORIENTED_EDGE('',*,*,#66,.T.);
#27=ORIENTED_EDGE('',*,*,#67,.T.);
#28=ORIENTED_EDGE('',*,*,#68,.T.);
#29=ORIENTED_EDGE('',*,*,#69,.T.);
#30=ORIENTED_EDGE('',*,*,#70,.T.);
#31=ORIENTED_EDGE('',*,*,#71,.T.);
#32=ORIENTED_EDGE('',*,*,#72,.T.);
#33=ORIENTED_EDGE('',*,*,#73,.T.);
#34=TRIMMED_CURVE($,#38,(#214),(#215),.T.,.CARTESIAN.);
#35=TRIMMED_CURVE($,#39,(#217),(#218),.T.,.CARTESIAN.);
#36=TRIMMED_CURVE($,#40,(#229),(#230),.T.,.CARTESIAN.);
#37=TRIMMED_CURVE($,#41,(#232),(#233),.T.,.CARTESIAN.);
#38=CIRCLE('',#180,7.31519999999997);
#39=CIRCLE('',#181,24.0000000000002);
#40=CIRCLE('',#182,7.31519999999997);
#41=CIRCLE('',#183,24.0000000000002);
#42=PCURVE('',#90,#50);
#43=PCURVE('',#90,#51);
#44=PCURVE('',#90,#52);
#45=PCURVE('',#91,#53);
#46=PCURVE('',#91,#54);
#47=PCURVE('',#91,#55);
#48=PCURVE('',#91,#56);
#49=PCURVE('',#91,#57);
#50=DEFINITIONAL_REPRESENTATION('',(#75),#259);
#51=DEFINITIONAL_REPRESENTATION('',(#77),#259);
#52=DEFINITIONAL_REPRESENTATION('',(#35),#259);
#53=DEFINITIONAL_REPRESENTATION('',(#37),#259);
#54=DEFINITIONAL_REPRESENTATION('',(#79),#259);
#55=DEFINITIONAL_REPRESENTATION('',(#12),#259);
#56=DEFINITIONAL_REPRESENTATION('',(#14),#259);
#57=DEFINITIONAL_REPRESENTATION('',(#81),#259);
#58=SURFACE_CURVE('',#74,(#42),.PCURVE_S1.);
#59=SURFACE_CURVE('',#76,(#43),.PCURVE_S1.);
#60=SURFACE_CURVE('',#34,(#44),.PCURVE_S1.);
#61=SURFACE_CURVE('',#36,(#45),.PCURVE_S1.);
#62=SURFACE_CURVE('',#78,(#46),.PCURVE_S1.);
#63=SURFACE_CURVE('',#11,(#47),.PCURVE_S1.);
#64=SURFACE_CURVE('',#13,(#48),.PCURVE_S1.);
#65=SURFACE_CURVE('',#80,(#49),.PCURVE_S1.);
#66=EDGE_CURVE('',#82,#83,#58,.T.);
#67=EDGE_CURVE('',#83,#84,#59,.T.);
#68=EDGE_CURVE('',#84,#82,#60,.T.);
#69=EDGE_CURVE('',#85,#86,#61,.T.);
#70=EDGE_CURVE('',#86,#87,#62,.T.);
#71=EDGE_CURVE('',#87,#88,#63,.T.);
#72=EDGE_CURVE('',#88,#89,#64,.T.);
#73=EDGE_CURVE('',#89,#85,#65,.T.);
#74=B_SPLINE_CURVE_WITH_KNOTS('',1,(#205,#206),.UNSPECIFIED.,.F.,.F.,(2,
2),(1.37901789806512,6.69202210676468),.UNSPECIFIED.);
#75=B_SPLINE_CURVE_WITH_KNOTS('',1,(#207,#208),.UNSPECIFIED.,.F.,.F.,(2,
2),(1.37901789806512,6.69202210676468),.UNSPECIFIED.);
#76=B_SPLINE_CURVE_WITH_KNOTS('',1,(#209,#210),.UNSPECIFIED.,.F.,.F.,(2,
2),(0.,3.43109444244709),.UNSPECIFIED.);
#77=B_SPLINE_CURVE_WITH_KNOTS('',1,(#211,#212),.UNSPECIFIED.,.F.,.F.,(2,
2),(0.,3.43109444244709),.UNSPECIFIED.);
#78=B_SPLINE_CURVE_WITH_KNOTS('',1,(#234,#235),.UNSPECIFIED.,.F.,.F.,(2,
2),(3.43109444244709,4.39829072099486),.UNSPECIFIED.);
#79=B_SPLINE_CURVE_WITH_KNOTS('',1,(#236,#237),.UNSPECIFIED.,.F.,.F.,(2,
2),(3.43109444244709,4.39829072099486),.UNSPECIFIED.);
#80=B_SPLINE_CURVE_WITH_KNOTS('',1,(#254,#255),.UNSPECIFIED.,.F.,.F.,(2,
2),(0.,1.37901789806512),.UNSPECIFIED.);
#81=B_SPLINE_CURVE_WITH_KNOTS('',1,(#256,#257),.UNSPECIFIED.,.F.,.F.,(2,
2),(0.,1.37901789806512),.UNSPECIFIED.);
#82=VERTEX_POINT('',#202);
#83=VERTEX_POINT('',#203);
#84=VERTEX_POINT('',#204);
#85=VERTEX_POINT('',#223);
#86=VERTEX_POINT('',#224);
#87=VERTEX_POINT('',#225);
#88=VERTEX_POINT('',#226);
#89=VERTEX_POINT('',#227);
#90=B_SPLINE_SURFACE_WITH_KNOTS('',1,1,((#198,#199),(#200,#201)),
 .UNSPECIFIED.,.F.,.F.,.F.,(2,2),(2,2),(-0.0669202210676518,6.75894232783283),
(-0.0439829072099487,4.44227362820482),.UNSPECIFIED.);
#91=B_SPLINE_SURFACE_WITH_KNOTS('',1,1,((#219,#220),(#221,#222)),
 .UNSPECIFIED.,.F.,.F.,.F.,(2,2),(2,2),(-0.0669202210676518,6.75894232783283),
(-0.0439829072099487,4.44227362820482),.UNSPECIFIED.);
#92=SHAPE_DEFINITION_REPRESENTATION(#93,#178);
#93=PRODUCT_DEFINITION_SHAPE($,$,#95);
#94=PRODUCT_DEFINITION_CONTEXT('3D Mechanical Parts',#167,'design');
#95=PRODUCT_DEFINITION('A','First version',#137,#94);
#96=DATE_TIME_ROLE('classification_date');
#97=DATE_TIME_ROLE('creation_date');
#98=APPLIED_DATE_AND_TIME_ASSIGNMENT(#122,#96,(#101));
#99=APPLIED_DATE_AND_TIME_ASSIGNMENT(#124,#97,(#95));
#100=SECURITY_CLASSIFICATION_LEVEL('unclassified');
#101=SECURITY_CLASSIFICATION('A','Security for version',#100);
#102=APPLIED_SECURITY_CLASSIFICATION_ASSIGNMENT(#101,(#137));
#103=APPROVAL_ROLE('Version approval');
#104=APPROVAL_ROLE('Version Security approval');
#105=APPROVAL_ROLE('Definition approval');
#106=APPROVAL_PERSON_ORGANIZATION(#155,#131,#103);
#107=APPROVAL_PERSON_ORGANIZATION(#156,#132,#104);
#108=APPROVAL_PERSON_ORGANIZATION(#159,#133,#105);
#109=COORDINATED_UNIVERSAL_TIME_OFFSET(5,0,.BEHIND.);
#110=LOCAL_TIME(0,0,0.,#109);
#111=LOCAL_TIME(0,0,0.,#109);
#112=LOCAL_TIME(0,0,0.,#109);
#113=LOCAL_TIME(0,0,0.,#109);
#114=LOCAL_TIME(0,0,0.,#109);
#115=CALENDAR_DATE(1999,1,1);
#116=CALENDAR_DATE(1999,1,1);
#117=CALENDAR_DATE(1999,1,1);
#118=CALENDAR_DATE(1999,1,1);
#119=CALENDAR_DATE(1999,1,1);
#120=DATE_AND_TIME(#115,#110);
#121=DATE_AND_TIME(#116,#111);
#122=DATE_AND_TIME(#117,#112);
#123=DATE_AND_TIME(#118,#113);
#124=DATE_AND_TIME(#119,#114);
#125=APPROVAL_DATE_TIME(#120,#131);
#126=APPROVAL_DATE_TIME(#121,#132);
#127=APPROVAL_DATE_TIME(#123,#133);
#128=APPROVAL_STATUS('not_yet_approved');
#129=APPROVAL_STATUS('not_yet_approved');
#130=APPROVAL_STATUS('approved');
#131=APPROVAL(#128,'Version approval');
#132=APPROVAL(#129,'Version Security approval');
#133=APPROVAL(#130,'Definition approval');
#134=APPLIED_APPROVAL_ASSIGNMENT(#131,(#137));
#135=APPLIED_APPROVAL_ASSIGNMENT(#132,(#101));
#136=APPLIED_APPROVAL_ASSIGNMENT(#133,(#95));
#137=PRODUCT_DEFINITION_FORMATION_WITH_SPECIFIED_SOURCE('A',
'First version',#169,.MADE.);
#138=PERSON_AND_ORGANIZATION_ROLE('design_owner');
#139=PERSON_AND_ORGANIZATION_ROLE('creator');
#140=PERSON_AND_ORGANIZATION_ROLE('design_supplier');
#141=PERSON_AND_ORGANIZATION_ROLE('classification_officer');
#142=PERSON_AND_ORGANIZATION_ROLE('creator');
#143=ORGANIZATION('STI','lab','lab');
#144=ORGANIZATION('STI','unknown','unknown');
#145=ORGANIZATION('STI','unknown','unknown');
#146=ORGANIZATION('STI','unknown','unknown');
#147=ORGANIZATION('STI','unknown','unknown');
#148=ORGANIZATION('STI','unknown','unknown');
#149=ORGANIZATION('STI','unknown','unknown');
#150=PERSON('1','Box','vc60',$,$,$);
#151=PERSON('2','last','first',$,$,$);
#152=PERSON('3','President','Mr.',$,$,$);
#153=PERSON_AND_ORGANIZATION(#150,#143);
#154=PERSON_AND_ORGANIZATION(#151,#144);
#155=PERSON_AND_ORGANIZATION(#152,#145);
#156=PERSON_AND_ORGANIZATION(#152,#146);
#157=PERSON_AND_ORGANIZATION(#152,#147);
#158=PERSON_AND_ORGANIZATION(#151,#148);
#159=PERSON_AND_ORGANIZATION(#152,#149);
#160=APPLIED_PERSON_AND_ORGANIZATION_ASSIGNMENT(#153,#138,(#169));
#161=APPLIED_PERSON_AND_ORGANIZATION_ASSIGNMENT(#154,#139,(#137));
#162=APPLIED_PERSON_AND_ORGANIZATION_ASSIGNMENT(#154,#140,(#137));
#163=APPLIED_PERSON_AND_ORGANIZATION_ASSIGNMENT(#157,#141,(#101));
#164=APPLIED_PERSON_AND_ORGANIZATION_ASSIGNMENT(#158,#142,(#95));
#165=PRODUCT_RELATED_PRODUCT_CATEGORY('detail','detail',(#169));
#166=APPLICATION_PROTOCOL_DEFINITION('International Standard',
'config_control_design',1994,#167);
#167=APPLICATION_CONTEXT(
'configuration controlled 3d designs of mechanical parts and assemblie
s');
#168=PRODUCT_CONTEXT('3D Mechanical Parts',#167,'mechanical');
#169=PRODUCT('Document','Document','',(#168));
#170=(
LENGTH_UNIT()
NAMED_UNIT(*)
SI_UNIT($,.METRE.)
);
#171=(
NAMED_UNIT(*)
PLANE_ANGLE_UNIT()
SI_UNIT($,.RADIAN.)
);
#172=DIMENSIONAL_EXPONENTS(0.,0.,0.,0.,0.,0.,0.);
#173=PLANE_ANGLE_MEASURE_WITH_UNIT(PLANE_ANGLE_MEASURE(0.01745329252),#171);
#174=(
CONVERSION_BASED_UNIT('DEGREES',#173)
NAMED_UNIT(#172)
PLANE_ANGLE_UNIT()
);
#175=(
NAMED_UNIT(*)
SI_UNIT($,.STERADIAN.)
SOLID_ANGLE_UNIT()
);
#176=UNCERTAINTY_MEASURE_WITH_UNIT(LENGTH_MEASURE(0.001),#170,
'DISTANCE_ACCURACY_VALUE',
'Maximum model space distance between geometric entities at asserted c
onnectivities');
#177=(
GEOMETRIC_REPRESENTATION_CONTEXT(3)
GLOBAL_UNCERTAINTY_ASSIGNED_CONTEXT((#176))
GLOBAL_UNIT_ASSIGNED_CONTEXT((#175,#174,#170))
REPRESENTATION_CONTEXT('ID1','3D')
);
#178=SHAPE_REPRESENTATION('Document',(#179,#184),#177);
#179=AXIS2_PLACEMENT_3D($,#197,#185,#186);
#180=AXIS2_PLACEMENT_3D($,#213,#187,#188);
#181=AXIS2_PLACEMENT_3D($,#216,#189,#190);
#182=AXIS2_PLACEMENT_3D($,#228,#191,#192);
#183=AXIS2_PLACEMENT_3D($,#231,#193,#194);
#184=AXIS2_PLACEMENT_3D($,#258,#195,#196);
#185=DIRECTION('',(0.,0.,1.));
#186=DIRECTION('',(1.,0.,0.));
#187=DIRECTION('',(3.77741687797513E-15,1.,5.84927990393128E-15));
#188=DIRECTION('',(-0.427083333333316,6.9206815839495E-15,-0.904212268435296));
#189=DIRECTION('',(0.,0.,1.));
#190=DIRECTION('',(-0.427083333333317,0.904212268435295,0.));
#191=DIRECTION('',(-3.77741687797513E-15,-1.,-5.84927990393128E-15));
#192=DIRECTION('',(-0.648458508695814,6.85997385075696E-15,-0.76125));
#193=DIRECTION('',(0.,0.,-1.));
#194=DIRECTION('',(-0.648458508695814,0.761250000000001,0.));
#195=DIRECTION('',(0.,0.,1.));
#196=DIRECTION('',(1.,0.,0.));
#197=CARTESIAN_POINT('',(0.,0.,0.));
#198=CARTESIAN_POINT('',(-5.18490822169662,3.7084,-5.5562627161103));
#199=CARTESIAN_POINT('',(-5.18490822169662,3.7084,-6.92367370810472));
#200=CARTESIAN_POINT('',(-3.10438531679176,3.7084,-5.5562627161103));
#201=CARTESIAN_POINT('',(-3.10438531679176,3.7084,-6.92367370810472));
#202=CARTESIAN_POINT('',(-4.74418628298495,3.7084,-5.56966870622789));
#203=CARTESIAN_POINT('',(-3.12478260017333,3.7084,-5.56966870622789));
#204=CARTESIAN_POINT('',(-3.12478260017321,3.7084,-6.61546629228577));
#205=CARTESIAN_POINT('',(-4.74418628298495,3.7084,-5.56966870622789));
#206=CARTESIAN_POINT('',(-3.12478260017333,3.7084,-5.56966870622789));
#207=CARTESIAN_POINT('',(1.37901789806512,1.46420787965247E-15));
#208=CARTESIAN_POINT('',(6.69202210676468,7.105427357601E-15));
#209=CARTESIAN_POINT('',(-3.12478260017333,3.7084,-5.56966870622789));
#210=CARTESIAN_POINT('',(-3.12478260017321,3.7084,-6.61546629228577));
#211=CARTESIAN_POINT('',(6.69202210676468,7.105427357601E-15));
#212=CARTESIAN_POINT('',(6.69202210676507,3.4310944424471));
#213=CARTESIAN_POINT('',(-0.000582600173353904,3.70839999999995,-0.000972706227918981));
#214=CARTESIAN_POINT('',(-3.12478260017321,3.7084,-6.61546629228577));
#215=CARTESIAN_POINT('',(-4.74418628298495,3.7084,-5.5696687062279));
#216=CARTESIAN_POINT('',(16.9420221067648,-18.2700000000001,0.));
#217=CARTESIAN_POINT('',(6.69202210676507,3.4310944424471,0.));
#218=CARTESIAN_POINT('',(1.37901789806512,-1.33226762955019E-15,0.));
#219=CARTESIAN_POINT('',(-5.18490822169662,3.7084,-5.5562627161103));
#220=CARTESIAN_POINT('',(-5.18490822169662,3.7084,-6.92367370810472));
#221=CARTESIAN_POINT('',(-3.10438531679176,3.7084,-5.5562627161103));
#222=CARTESIAN_POINT('',(-3.10438531679176,3.7084,-6.92367370810472));
#223=CARTESIAN_POINT('',(-4.74418628298495,3.7084,-5.56966870622789));
#224=CARTESIAN_POINT('',(-3.12478260017321,3.7084,-6.61546629228577));
#225=CARTESIAN_POINT('',(-3.12478260017318,3.7084,-6.91026771798713));
#226=CARTESIAN_POINT('',(-4.92536559031457,3.7084,-5.78236195622789));
#227=CARTESIAN_POINT('',(-5.1645109383152,3.7084,-5.56966870622789));
#228=CARTESIAN_POINT('',(-0.000582600173353904,3.70839999999995,-0.000972706227918981));
#229=CARTESIAN_POINT('',(-4.74418628298495,3.7084,-5.56966870622789));
#230=CARTESIAN_POINT('',(-3.12478260017321,3.7084,-6.61546629228577));
#231=CARTESIAN_POINT('',(16.9420221067648,-18.2700000000001,0.));
#232=CARTESIAN_POINT('',(1.37901789806512,0.,0.));
#233=CARTESIAN_POINT('',(6.69202210676507,3.4310944424471,0.));
#234=CARTESIAN_POINT('',(-3.12478260017321,3.7084,-6.61546629228577));
#235=CARTESIAN_POINT('',(-3.12478260017318,3.7084,-6.91026771798713));
#236=CARTESIAN_POINT('',(6.69202210676507,3.4310944424471));
#237=CARTESIAN_POINT('',(6.69202210676518,4.39829072099487));
#238=CARTESIAN_POINT('',(-3.12478260017318,3.7084,-6.91026771798713));
#239=CARTESIAN_POINT('',(-3.20835439112586,3.7084,-6.87227495625218));
#240=CARTESIAN_POINT('',(-3.29097791666474,3.7084,-6.83227106098561));
#241=CARTESIAN_POINT('',(-4.17653427491369,3.7084,-6.41257583193462));
#242=CARTESIAN_POINT('',(-4.92536559031457,3.7084,-5.78236195622789));
#243=CARTESIAN_POINT('',(6.69202210676518,4.39829072099487));
#244=CARTESIAN_POINT('',(6.41783644090992,4.27364255257314));
#245=CARTESIAN_POINT('',(6.14676188205531,4.14239617702666));
#246=CARTESIAN_POINT('',(3.24139325262964,2.76544332580951));
#247=CARTESIAN_POINT('',(0.78459759842729,0.697812500000008));
#248=CARTESIAN_POINT('',(-4.92536559031457,3.7084,-5.78236195622789));
#249=CARTESIAN_POINT('',(-5.04717986429514,3.7084,-5.67853588371521));
#250=CARTESIAN_POINT('',(-5.1645109383152,3.7084,-5.56966870622789));
#251=CARTESIAN_POINT('',(0.78459759842729,0.697812500000008));
#252=CARTESIAN_POINT('',(0.384944468569774,0.357175779157867));
#253=CARTESIAN_POINT('',(0.,0.));
#254=CARTESIAN_POINT('',(-5.1645109383152,3.7084,-5.56966870622789));
#255=CARTESIAN_POINT('',(-4.74418628298495,3.7084,-5.56966870622789));
#256=CARTESIAN_POINT('',(0.,0.));
#257=CARTESIAN_POINT('',(1.37901789806512,1.46420787965247E-15));
#258=CARTESIAN_POINT('',(0.,0.,0.));
#259=(
GEOMETRIC_REPRESENTATION_CONTEXT(2)
PARAMETRIC_REPRESENTATION_CONTEXT()
REPRESENTATION_CONTEXT('pspace','')
);
ENDSEC;
END-ISO-10303-21;
